<?xml version="1.0" encoding="utf-8"?>
<!-- Generator: Adobe Illustrator 17.0.0, SVG Export Plug-In . SVG Version: 6.00 Build 0)  -->
<!DOCTYPE svg PUBLIC "-//W3C//DTD SVG 1.1//EN" "http://www.w3.org/Graphics/SVG/1.1/DTD/svg11.dtd">
<svg version="1.1" id="Layer_1" xmlns="http://www.w3.org/2000/svg" xmlns:xlink="http://www.w3.org/1999/xlink" x="0px" y="0px"
	 width="205.167px" height="37.473px" viewBox="0 0 205.167 37.473" enable-background="new 0 0 205.167 37.473"
	 xml:space="preserve">
<g id="Layer_4" display="none">
	<path display="inline" fill="#FFFFFF" d="M170.148,17.94c-3.716-0.685-5.986-1.312-7.348-2.673c-1.36-1.36-1.988-3.63-2.673-7.348
		c-0.058-0.307-0.321-0.528-0.636-0.528c-0.312,0-0.58,0.225-0.635,0.528c-0.685,3.718-1.312,5.986-2.673,7.348
		c-1.361,1.36-3.633,1.988-7.348,2.673c-0.306,0.059-0.528,0.322-0.528,0.637c0,0.312,0.224,0.579,0.528,0.635
		c3.715,0.685,5.986,1.313,7.348,2.673c1.359,1.36,1.988,3.632,2.673,7.348c0.055,0.307,0.321,0.528,0.635,0.528
		c0.312,0,0.578-0.224,0.636-0.528c0.685-3.716,1.312-5.985,2.673-7.348c1.36-1.357,3.632-1.988,7.348-2.673
		c0.307-0.056,0.528-0.321,0.528-0.635S170.455,17.998,170.148,17.94z"/>
</g>
<g id="Layer_2" display="none">
	<path display="inline" fill="none" stroke="#000000" stroke-width="8" stroke-linecap="round" stroke-miterlimit="10" d="
		M-13.007-45.615C-6.302-55.44-2.382-67.318-2.382-80.111c0-33.843-27.435-61.275-61.277-61.275s-61.276,27.435-61.276,61.275
		c0,33.843,27.435,61.276,61.276,61.276c14.613,0,28.031-5.115,38.562-13.652"/>
</g>
<g>
	<path fill="#F6934B" d="M9.667,28.189l-0.977,7.677H3.809l0.976-7.677H1.546v-5.148h3.905l0.622-5.148h-3.24v-5.148h3.905
		l0.976-7.677h4.882l-0.976,7.677h3.949l0.976-7.677h4.882l-0.976,7.677h3.284v5.148h-3.905l-0.666,5.148h3.284v5.148h-3.905
		l-0.977,7.677h-4.881l0.976-7.677H9.667z M14.282,23.041l0.666-5.148h-3.994l-0.621,5.148H14.282z"/>
	<path fill="#7C8083" d="M55.375,13.456h-0.089c-0.03,0.443-0.155,1.036-0.377,1.775c-0.222,0.74-0.495,1.509-0.821,2.308
		l-7.012,18.327h-6.213l-7.189-18.638c-0.326-0.798-0.607-1.568-0.843-2.307c-0.237-0.739-0.371-1.332-0.399-1.775h-0.089v18.195
		h3.239v4.527H24.577v-4.527h2.707V9.329h-3.24V4.802H35.45l7.988,20.635c0.237,0.592,0.48,1.22,0.732,1.886
		c0.251,0.666,0.422,1.442,0.511,2.33h0.088c0.029-0.444,0.081-0.865,0.155-1.265c0.074-0.399,0.178-0.806,0.311-1.22
		c0.133-0.414,0.288-0.873,0.466-1.376c0.177-0.503,0.384-1.065,0.621-1.686l7.234-19.304h11.272v4.527h-3.239v22.011h3.106v4.527
		H52.756v-4.527h2.618V13.456z"/>
	<path fill="#7C8083" d="M63.85,24.506c0-1.657,0.281-3.232,0.843-4.726c0.562-1.494,1.368-2.81,2.419-3.949
		c1.05-1.139,2.33-2.042,3.839-2.707c1.509-0.666,3.21-0.999,5.103-0.999c3.934,0,6.952,1.051,9.053,3.151
		c2.1,2.101,3.151,5.177,3.151,9.23c0,1.746-0.288,3.343-0.865,4.793c-0.577,1.45-1.398,2.7-2.463,3.75
		c-1.065,1.051-2.345,1.871-3.839,2.463c-1.494,0.592-3.173,0.888-5.037,0.888s-3.543-0.252-5.037-0.754
		c-1.494-0.503-2.774-1.25-3.839-2.241c-1.065-0.991-1.886-2.226-2.463-3.705C64.139,28.218,63.85,26.488,63.85,24.506z
		 M70.596,24.638c0,2.101,0.429,3.743,1.287,4.926c0.858,1.183,2.248,1.775,4.171,1.775c1.923,0,3.313-0.592,4.172-1.775
		c0.858-1.183,1.287-2.825,1.287-4.926c0-2.514-0.429-4.386-1.287-5.614c-0.858-1.227-2.249-1.841-4.172-1.841
		c-0.947,0-1.768,0.192-2.463,0.577c-0.695,0.385-1.265,0.91-1.708,1.575c-0.444,0.666-0.77,1.45-0.977,2.352
		C70.699,22.59,70.596,23.573,70.596,24.638z"/>
	<path fill="#7C8083" d="M90.565,17.183h-3.017v-4.527h9.097c0,0.799-0.015,1.583-0.044,2.352c-0.03,0.77-0.133,1.583-0.311,2.441
		h0.089c0.592-1.538,1.568-2.81,2.929-3.817c1.36-1.005,3.062-1.509,5.103-1.509c2.752,0,4.778,0.814,6.08,2.441
		c1.301,1.627,1.952,3.832,1.952,6.612v10.162h2.663v4.527h-11.405v-4.527h2.529v-9.541c0-1.598-0.377-2.722-1.131-3.373
		c-0.754-0.65-1.724-0.976-2.907-0.976c-0.947,0-1.761,0.155-2.441,0.466c-0.681,0.311-1.243,0.748-1.687,1.309
		c-0.444,0.562-0.77,1.213-0.976,1.953c-0.207,0.74-0.311,1.553-0.311,2.441v7.722h2.662v4.527H88.302v-4.527h2.263V17.183z"/>
	<g>
		<path fill="#7C8083" d="M133.61,8.796c1.302,0,2.322-0.355,3.062-1.065c0.739-0.71,1.109-1.642,1.109-2.796
			c0-1.154-0.37-2.086-1.109-2.796c-0.74-0.71-1.76-1.065-3.062-1.065c-1.302,0-2.323,0.355-3.062,1.065
			c-0.74,0.71-1.109,1.642-1.109,2.796c0,1.154,0.369,2.086,1.109,2.796C131.288,8.441,132.308,8.796,133.61,8.796z"/>
		<path fill="#7C8083" d="M139.601,31.339h-2.662V12.657h-6.878h-2.352h-3.861V7.509l-6.213,0.355v4.793h-3.151v4.527h3.151v13.002
			c0,2.042,0.592,3.588,1.775,4.637c1.183,1.05,2.929,1.576,5.237,1.576c0.769,0,1.575-0.082,2.418-0.244
			c0.367-0.071,0.77-0.17,1.196-0.289h11.34V31.339z M130.726,31.339h-0.466l0.022-0.444c-0.473,0.19-0.91,0.33-1.326,0.444h-0.76
			v0.171c-0.329,0.057-0.645,0.096-0.932,0.096c-0.651,0-1.191-0.059-1.62-0.178c-0.429-0.118-0.776-0.333-1.043-0.644
			c-0.267-0.311-0.459-0.724-0.577-1.242c-0.118-0.518-0.177-1.191-0.177-2.019v-10.34h3.861h2.352h0.665V31.339z"/>
	</g>
	<path fill="#F6934B" d="M203.288,24.039c-0.222-0.813-0.57-1.56-1.043-2.241c-0.473-0.68-1.08-1.25-1.819-1.709
		c-0.74-0.458-1.627-0.732-2.663-0.821V19.18c0.888-0.177,1.642-0.488,2.263-0.932c0.622-0.444,1.132-0.983,1.531-1.62
		c0.399-0.636,0.694-1.346,0.887-2.13c0.192-0.783,0.289-1.59,0.289-2.419c0-2.396-0.703-4.311-2.108-5.747
		c-1.406-1.434-3.588-2.152-6.546-2.152h-12.47v24.764l-6.035-24.764h-10.384l-5.973,24.94h-8.183V4.181h-8.254v31.685h14.822h3.595
		h5.059l0.843-5.547h6.568l0.843,5.547h7.1h1.687h10.783c1.715,0,3.18-0.229,4.393-0.688c1.213-0.458,2.197-1.102,2.951-1.93
		c0.754-0.828,1.309-1.819,1.664-2.973c0.355-1.154,0.532-2.411,0.532-3.772C203.621,25.675,203.51,24.854,203.288,24.039z
		 M168.075,24.106l2.263-13.446h0.089l2.263,13.446H168.075z M189.864,10.127h1.997c0.858,0,1.509,0.326,1.953,0.976
		c0.444,0.651,0.666,1.42,0.666,2.308c0,0.858-0.222,1.605-0.666,2.241c-0.444,0.637-1.095,0.954-1.953,0.954h-1.997V10.127z
		 M194.213,28.965c-0.592,0.637-1.272,0.954-2.042,0.954h-2.307v-7.722h2.307c0.769,0,1.449,0.326,2.042,0.976
		c0.592,0.651,0.888,1.598,0.888,2.84C195.101,27.346,194.805,28.33,194.213,28.965z"/>
</g>
</svg>
